name Run_30002_IK.mot
datacolumns 164
datarows 4
range 1.05 1.08
endheader
time	         pelvis_tilt	         pelvis_list	     pelvis_rotation	           pelvis_tx	           pelvis_ty	           pelvis_tz	       hip_flexion_r	     hip_adduction_r	      hip_rotation_r	        knee_angle_r	       ankle_angle_r	       hip_flexion_l	     hip_adduction_l	      hip_rotation_l	        knee_angle_l	       ankle_angle_l	    lumbar_extension	      lumbar_bending	     lumbar_rotation	          arm_flex_r	           arm_add_r	           arm_rot_r	        elbow_flex_r	           pro_sup_r	          arm_flex_l	           arm_add_l	           arm_rot_l	        elbow_flex_l	           pro_sup_l	    subtalar_angle_r	         mtp_angle_r	    subtalar_angle_l	         mtp_angle_l	        wrist_flex_r	         wrist_dev_r	        wrist_flex_l	         wrist_dev_l	             LASI_tx	             LASI_ty	             LASI_tz	             RASI_tx	             RASI_ty	             RASI_tz	             LPSI_tx	             LPSI_ty	             LPSI_tz	             RPSI_tx	             RPSI_ty	             RPSI_tz	             RTH1_tx	             RTH1_ty	             RTH1_tz	             RTH2_tx	             RTH2_ty	             RTH2_tz	             RTH3_tx	             RTH3_ty	             RTH3_tz	             LTH1_tx	             LTH1_ty	             LTH1_tz	             LTH2_tx	             LTH2_ty	             LTH2_tz	             LTH3_tx	             LTH3_ty	             LTH3_tz	             RTB1_tx	             RTB1_ty	             RTB1_tz	             RTB2_tx	             RTB2_ty	             RTB2_tz	             RTB3_tx	             RTB3_ty	             RTB3_tz	             LTB1_tx	             LTB1_ty	             LTB1_tz	             LTB2_tx	             LTB2_ty	             LTB2_tz	             LTB3_tx	             LTB3_ty	             LTB3_tz	             RCAL_tx	             RCAL_ty	             RCAL_tz	             RTOE_tx	             RTOE_ty	             RTOE_tz	             RMT5_tx	             RMT5_ty	             RMT5_tz	             LCAL_tx	             LCAL_ty	             LCAL_tz	             LTOE_tx	             LTOE_ty	             LTOE_tz	             LMT5_tx	             LMT5_ty	             LMT5_tz	             LACR_tx	             LACR_ty	             LACR_tz	             RACR_tx	             RACR_ty	             RACR_tz	             CLAV_tx	             CLAV_ty	             CLAV_tz	               C7_tx	               C7_ty	               C7_tz	             RUA1_tx	             RUA1_ty	             RUA1_tz	             RUA2_tx	             RUA2_ty	             RUA2_tz	             RUA3_tx	             RUA3_ty	             RUA3_tz	             RLEL_tx	             RLEL_ty	             RLEL_tz	             RMEL_tx	             RMEL_ty	             RMEL_tz	             LUA1_tx	             LUA1_ty	             LUA1_tz	             LUA2_tx	             LUA2_ty	             LUA2_tz	             LUA3_tx	             LUA3_ty	             LUA3_tz	             LLEL_tx	             LLEL_ty	             LLEL_tz	             LMEL_tx	             LMEL_ty	             LMEL_tz	      RFAsuperior_tx	      RFAsuperior_ty	      RFAsuperior_tz	        RFAradius_tx	        RFAradius_ty	        RFAradius_tz	          RFAulna_tx	          RFAulna_ty	          RFAulna_tz	      LFAsuperior_tx	      LFAsuperior_ty	      LFAsuperior_tz	        LFAradius_tx	        LFAradius_ty	        LFAradius_tz	          LFAulna_tx	          LFAulna_ty	          LFAulna_tz	
1.05	        -14.16942066	          3.57376531	         -0.79605546	          0.99209591	          0.98464361	         -0.35235309	         44.06362738	         -4.12798232	          3.32091183	        -89.90093937	          5.01083892	         17.06939578	         10.38390033	          0.64605562	        -32.24924935	         20.64879433	          4.35990306	         -4.73060238	         -4.19554573	        -35.80430620	        -20.37910588	         -7.22283288	         92.62603377	        112.86436667	        -25.73670022	        -10.90882448	        -13.33978667	        112.42041776	        100.59894032	          0.00000000	          0.00000000	          0.00000000	          0.00000000	          0.00000000	          0.00000000	          0.00000000	          0.00000000	          1.01300385	          1.02268125	         -0.46842111	          1.00835500	          1.02605058	         -0.22773121	          0.85590322	          1.09319108	         -0.41391646	          0.84984419	          1.08502321	         -0.30066022	          0.94783209	          0.91060061	         -0.17990243	          0.95347497	          0.76263226	         -0.19557043	          1.06178381	          0.64075058	         -0.18854336	          0.95359335	          0.89851613	         -0.52773901	          0.87442795	          0.74736975	         -0.48367130	          0.92310501	          0.61261956	         -0.46847988	          1.03450385	          0.42768024	         -0.24752248	          0.95013722	          0.47292517	         -0.18307276	          0.86377250	          0.35085929	         -0.25643964	          0.92711478	          0.38526892	         -0.38633091	          0.80524341	          0.32004665	         -0.43646410	          0.80120273	          0.20579920	         -0.36886768	          0.68452567	          0.37908384	         -0.25577925	          0.81099945	          0.17135720	         -0.26691628	          0.76000001	          0.19824416	         -0.17556802	          0.61995910	          0.12687236	         -0.34356064	          0.85117667	          0.07153301	         -0.32815807	          0.79724339	          0.03838068	         -0.42360970	          0.98623653	          1.50846798	         -0.52559453	          0.99004264	          1.50289462	         -0.19712320	          1.05420407	          1.47033552	         -0.32700907	          0.93188008	          1.53450185	         -0.36787107	          0.86341596	          1.42741202	         -0.14358258	          0.89148932	          1.36740120	         -0.10200165	          0.80559648	          1.31305834	         -0.06552556	          0.75857904	          1.26733795	         -0.03731667	          0.75409638	          1.23598812	         -0.12067795	          0.89347394	          1.40276332	         -0.57605335	          0.92461146	          1.32576100	         -0.59714028	          0.85587794	          1.25609434	         -0.61755556	          0.84109646	          1.19075228	         -0.63660050	          0.82743338	          1.17154254	         -0.54741915	          0.82724963	          1.17973199	         -0.02999163	          0.95588884	          1.07750625	         -0.11207189	          0.91601375	          1.04977859	         -0.06296154	          0.91160519	          1.14261226	         -0.63121615	          1.08122229	          1.15527719	         -0.54650610	          1.07570804	          1.09041432	         -0.57617548	
1.06	        -14.20545559	          3.15806347	         -1.48899053	          0.99475706	          0.99196950	         -0.35146899	         45.20433126	         -3.43026989	          3.09741307	        -86.65140087	          5.66003247	         13.63052144	          9.71684150	          0.76951832	        -29.07633485	         17.52163524	          4.87927158	         -3.99556626	         -4.58293073	        -37.53326738	        -20.67226393	         -7.80351407	         94.36952962	        112.58317133	        -26.29665942	        -10.77372265	        -13.49306344	        114.80168262	         99.92698923	          0.00000000	          0.00000000	          0.00000000	          0.00000000	          0.00000000	          0.00000000	          0.00000000	          0.00000000	          1.01664174	          1.02892430	         -0.46851141	          1.00907805	          1.03349312	         -0.22707575	          0.85933907	          1.09988580	         -0.41522642	          0.85167356	          1.09289966	         -0.30202676	          0.95021064	          0.91992416	         -0.17856769	          0.95808892	          0.77154352	         -0.19511597	          1.06941096	          0.65285315	         -0.18782763	          0.95436162	          0.90323952	         -0.52654181	          0.86601930	          0.75625168	         -0.48313037	          0.90795392	          0.61923072	         -0.46805198	          1.05241792	          0.43427590	         -0.24598629	          0.96391980	          0.47458164	         -0.18412984	          0.88736875	          0.34420855	         -0.25641716	          0.90359816	          0.39113654	         -0.38731589	          0.78115547	          0.32778799	         -0.43801595	          0.77658506	          0.21284234	         -0.37074455	          0.70646807	          0.35841413	         -0.25786793	          0.85088041	          0.16248011	         -0.26650299	          0.79635033	          0.18524336	         -0.17597256	          0.59524371	          0.13805842	         -0.34666975	          0.82240510	          0.07058253	         -0.32810831	          0.76753867	          0.03921885	         -0.42405553	          0.98875899	          1.51673975	         -0.52398977	          0.98666670	          1.51076293	         -0.19607682	          1.05327461	          1.47842374	         -0.32460020	          0.93197787	          1.54169390	         -0.36742232	          0.85827948	          1.43765976	         -0.14611309	          0.88459438	          1.37766919	         -0.10233781	          0.79723971	          1.32472506	         -0.06756562	          0.74851435	          1.27994877	         -0.04054578	          0.74574661	          1.24873995	         -0.12434714	          0.89687158	          1.41128467	         -0.57622697	          0.92887680	          1.33459978	         -0.59730135	          0.86118600	          1.26469568	         -0.61942184	          0.84619920	          1.19957756	         -0.63828371	          0.83081759	          1.18050123	         -0.54892563	          0.81700806	          1.19302912	         -0.03208049	          0.94792150	          1.09232325	         -0.11182290	          0.90740207	          1.06376961	         -0.06360170	          0.91783017	          1.15453529	         -0.63119479	          1.08474728	          1.17415030	         -0.54365108	          1.08250934	          1.10852077	         -0.57218044	
1.07	        -14.27714318	          2.66307006	         -2.24758880	          0.99770378	          0.99948311	         -0.35043040	         46.07570337	         -2.66422361	          2.68721900	        -82.91169732	          6.22252110	         10.36173506	          8.91725486	          0.54773756	        -25.98545316	         13.54462815	          5.43976315	         -3.14307756	         -4.74575318	        -39.33671226	        -20.82580415	         -8.57807922	         96.07907291	        112.30632434	        -26.86482463	        -10.70266184	        -13.51585296	        117.13104375	         99.66688931	          0.00000000	          0.00000000	          0.00000000	          0.00000000	          0.00000000	          0.00000000	          0.00000000	          0.00000000	          1.02082249	          1.03535853	         -0.46867257	          1.01007083	          1.04132053	         -0.22629356	          0.86331923	          1.10677762	         -0.41661442	          0.85372033	          1.10105539	         -0.30326394	          0.95184064	          0.92951759	         -0.17673324	          0.96216711	          0.78076665	         -0.19423662	          1.07584746	          0.66474076	         -0.18716496	          0.95524245	          0.90847663	         -0.52534238	          0.85832809	          0.76606884	         -0.48273479	          0.89382065	          0.62711006	         -0.46826002	          1.06916161	          0.44061708	         -0.24468838	          0.97685619	          0.47506127	         -0.18531462	          0.91113844	          0.33743689	         -0.25632884	          0.88149092	          0.39835569	         -0.38914310	          0.75851263	          0.33687198	         -0.44009981	          0.75341626	          0.22119591	         -0.37322025	          0.73012451	          0.33662416	         -0.26082776	          0.89155833	          0.15436357	         -0.26591606	          0.83368096	          0.17266988	         -0.17653288	          0.57254319	          0.15118794	         -0.35002420	          0.79412517	          0.06924193	         -0.32846680	          0.73803667	          0.04011534	         -0.42425840	          0.99106143	          1.52543894	         -0.52222567	          0.98398761	          1.51867129	         -0.19501878	          1.05240524	          1.48678399	         -0.32214625	          0.93200545	          1.54912616	         -0.36668772	          0.85402141	          1.44805253	         -0.14854747	          0.87854331	          1.38792756	         -0.10296218	          0.78961025	          1.33655582	         -0.06999707	          0.73925758	          1.29268175	         -0.04409658	          0.73839283	          1.26153033	         -0.12858404	          0.90025123	          1.42032952	         -0.57645980	          0.93300579	          1.34389143	         -0.59736185	          0.86596631	          1.27399109	         -0.62114855	          0.85090772	          1.20899908	         -0.64020793	          0.83381405	          1.18998788	         -0.55063536	          0.80749130	          1.20618914	         -0.03451239	          0.94075799	          1.10704345	         -0.11182507	          0.89959632	          1.07770357	         -0.06453578	          0.92342974	          1.16663168	         -0.63120398	          1.08750757	          1.19309625	         -0.54073134	          1.08837273	          1.12707218	         -0.56864407	
1.08	        -14.36112595	          2.07589690	         -3.07216447	          1.00082494	          1.00702652	         -0.34927394	         46.65970550	         -1.78426895	          2.11297480	        -78.70146630	          6.63924968	          7.30122642	          7.99630339	         -0.06139967	        -23.10173707	          8.92005601	          5.98525571	         -2.15941717	         -4.70055094	        -41.18006718	        -20.87527956	         -9.45736284	         97.71723409	        111.84906517	        -27.41824689	        -10.69736380	        -13.38737132	        119.38033556	         99.62650755	          0.00000000	          0.00000000	          0.00000000	          0.00000000	          0.00000000	          0.00000000	          0.00000000	          0.00000000	          1.02539644	          1.04168901	         -0.46888900	          1.01118941	          1.04948497	         -0.22536085	          0.86770440	          1.11359261	         -0.41809228	          0.85587792	          1.10919132	         -0.30441319	          0.95289947	          0.93910791	         -0.17455010	          0.96567729	          0.79004782	         -0.19291964	          1.08092290	          0.67608455	         -0.18674099	          0.95616875	          0.91403698	         -0.52415680	          0.85162275	          0.77634365	         -0.48266229	          0.88091387	          0.63586559	         -0.46926871	          1.08477699	          0.44671273	         -0.24405531	          0.98908967	          0.47423671	         -0.18663475	          0.93563656	          0.33065623	         -0.25642293	          0.86113428	          0.40658396	         -0.39211918	          0.73740822	          0.34702660	         -0.44271355	          0.73189512	          0.23054753	         -0.37637836	          0.75565120	          0.31406674	         -0.26450493	          0.93287892	          0.14708738	         -0.26552432	          0.87198824	          0.16065637	         -0.17725353	          0.55199266	          0.16582071	         -0.35351681	          0.76627111	          0.06787782	         -0.32916810	          0.70877996	          0.04127992	         -0.42432511	          0.99321078	          1.53431366	         -0.52038000	          0.98195222	          1.52653309	         -0.19400453	          1.05168897	          1.49512917	         -0.31975872	          0.93199682	          1.55655539	         -0.36575303	          0.85060654	          1.45849943	         -0.15065497	          0.87334328	          1.39804877	         -0.10380454	          0.78279211	          1.34848474	         -0.07275922	          0.73096360	          1.30537659	         -0.04791998	          0.73191334	          1.27419078	         -0.13303660	          0.90355567	          1.42970483	         -0.57673619	          0.93691785	          1.35347572	         -0.59744576	          0.87012325	          1.28381432	         -0.62284300	          0.85521461	          1.21879508	         -0.64230257	          0.83659134	          1.19958862	         -0.55264209	          0.79885686	          1.21903372	         -0.03727040	          0.93437564	          1.12127922	         -0.11199525	          0.89248498	          1.09117744	         -0.06584957	          0.92855338	          1.17882890	         -0.63133988	          1.08959917	          1.21175132	         -0.53783136	          1.09336746	          1.14550876	         -0.56535130	
